# xmcd
#
# Track frame offsets: 
#        150
#        17502
#        33121
#        50161
#        65727
#        84371
#        99292
#        114285
#        136008
#        156982
#        174996
#        193479
#        211127
#        228399
#        244842
#
# Disc length: 3479 seconds
#
# Revision: 3
# Processed by: cddbd v1.5.2PL0 Copyright (c) Steve Scherf et al.
# Submitted via: ExactAudioCopy v1.0b3
#
DISCID=c00d950f
DTITLE=Shawn King - In My Own Backyard
DYEAR=2005
DGENRE=Country
TTITLE0=In My Own Backyard
TTITLE1=Find Me
TTITLE2=Blue Dress
TTITLE3=The Place Your Love Calls Home
TTITLE4=Ghost of a Chance
TTITLE5=I Pray
TTITLE6=Strength in Numbers
TTITLE7=First Kiss
TTITLE8=Closet of Ruby Red
TTITLE9=I Sail
TTITLE10=Love Unspoken
TTITLE11=Sorry But I Love You
TTITLE12=In This Room
TTITLE13=Saving Grace
TTITLE14=Big Bad Love
EXTD=Lofton Creek Records 2005
EXTT0=
EXTT1=
EXTT2=
EXTT3=
EXTT4=
EXTT5=
EXTT6=
EXTT7=
EXTT8=
EXTT9=
EXTT10=
EXTT11=
EXTT12=
EXTT13=
EXTT14=
PLAYORDER=
